<?xml version="1.0" standalone="no"?>
<!DOCTYPE svg PUBLIC "-//W3C//DTD SVG 20010904//EN"
 "http://www.w3.org/TR/2001/REC-SVG-20010904/DTD/svg10.dtd">
<svg version="1.0" xmlns="http://www.w3.org/2000/svg"
 width="600.000000pt" height="600.000000pt" viewBox="0 0 600.000000 600.000000"
 preserveAspectRatio="xMidYMid meet">

<g transform="translate(0.000000,600.000000) scale(0.100000,-0.100000)"
fill="#000000" stroke="none">
<path d="M2688 5980 c-34 -26 -54 -79 -67 -174 -14 -98 -14 -208 -1 -316 15
-121 56 -316 84 -398 26 -76 227 -475 321 -637 89 -155 156 -295 224 -470 34
-88 71 -181 82 -207 24 -60 24 -62 -7 -41 l-26 17 6 -35 7 -34 -43 48 c-24 26
-47 47 -52 47 -4 0 -6 -18 -4 -40 4 -45 0 -47 -62 -25 -74 26 -123 17 -84 -15
8 -8 20 -22 25 -32 32 -59 -114 82 -274 267 -134 153 -242 336 -342 580 -167
406 -280 582 -502 780 -118 105 -194 155 -281 184 -92 31 -148 36 -178 16 -94
-61 -117 -357 -45 -573 42 -126 148 -334 234 -460 144 -213 319 -363 570 -492
78 -40 170 -89 204 -108 l62 -35 -20 -29 c-21 -29 -18 -68 5 -68 7 0 23 11 36
25 30 32 37 32 76 -6 l33 -32 -45 -43 c-65 -64 -104 -130 -104 -178 0 -71 -13
-74 -58 -15 -76 102 -106 160 -104 206 1 35 -3 45 -21 54 -12 7 -28 20 -35 31
-7 10 -22 18 -32 18 -38 0 -140 -119 -140 -164 0 -11 9 -29 19 -40 52 -57 171
-533 245 -976 51 -307 67 -457 73 -692 5 -189 4 -208 -11 -208 -9 0 -16 -5
-16 -11 0 -7 -10 -5 -25 5 -22 14 -25 14 -25 1 0 -11 -7 -13 -31 -8 -28 5 -31
4 -25 -14 5 -17 1 -23 -25 -32 -18 -6 -48 -23 -67 -37 -29 -22 -38 -25 -58
-15 -23 10 -24 9 -24 -20 0 -42 -98 -191 -121 -184 -14 5 -17 -6 -22 -62 -15
-172 -20 -198 -35 -211 -14 -11 -14 -15 6 -40 12 -15 30 -43 39 -62 10 -19 26
-48 36 -63 15 -21 16 -31 7 -42 -9 -11 -7 -16 9 -25 12 -6 49 -35 82 -65 34
-30 65 -55 70 -55 19 0 8 -22 -26 -51 -84 -74 -20 -109 165 -90 92 10 96 11
125 46 29 34 31 35 106 35 100 0 213 30 307 81 91 50 172 105 190 130 20 29
79 39 249 42 l160 2 56 -38 c31 -20 57 -43 57 -51 0 -7 -9 -39 -20 -71 -23
-66 -26 -115 -8 -133 13 -13 242 -17 286 -6 33 9 27 31 -18 59 l-40 25 16 38
c31 73 34 84 34 128 0 47 -44 174 -98 281 -25 49 -38 103 -71 294 -22 129 -49
268 -61 309 -80 294 -82 302 -87 445 -6 157 5 269 43 420 29 117 57 168 174
312 109 135 203 256 282 362 35 46 94 119 132 163 l70 80 -17 30 c-9 16 -17
36 -17 45 0 25 -87 105 -107 99 -17 -6 -36 -23 -171 -161 -33 -33 -73 -68 -90
-78 l-31 -18 -33 36 c-18 20 -47 52 -65 71 -25 28 -38 34 -72 34 -22 0 -56 -8
-76 -17 -19 -9 -37 -14 -40 -11 -3 3 -15 52 -26 109 -17 86 -22 166 -29 469
-11 438 -22 540 -90 805 -47 185 -179 467 -287 615 -18 25 -48 65 -65 90 -74
100 -213 252 -252 275 -52 30 -66 31 -98 5z m143 -98 c71 -73 272 -366 355
-518 68 -126 119 -264 165 -448 59 -242 79 -399 89 -721 5 -154 16 -347 24
-430 19 -180 19 -198 6 -190 -17 11 -60 102 -96 206 -87 250 -192 487 -349
789 -194 372 -245 481 -275 581 -12 41 -29 92 -36 114 -28 83 -56 280 -56 405
-1 126 1 136 46 243 24 55 48 50 127 -31z m-1138 -447 c130 -52 210 -116 374
-304 41 -47 102 -126 135 -176 62 -93 175 -316 248 -490 100 -237 190 -385
350 -575 44 -52 80 -98 80 -101 0 -3 -26 -9 -57 -13 -32 -3 -71 -9 -88 -12
-23 -4 -38 1 -64 23 -31 26 -33 31 -20 51 11 17 11 24 1 34 -10 10 -18 9 -42
-6 l-30 -17 -148 77 c-184 97 -284 158 -389 240 -92 72 -251 245 -331 362 -66
96 -161 287 -204 412 -31 89 -33 103 -33 235 0 154 15 245 46 276 17 17 28 19
67 13 26 -3 73 -16 105 -29z m593 -1704 c-4 -6 -16 -11 -27 -11 -21 0 -27 35
-6 43 16 6 41 -18 33 -32z m679 -20 c32 -14 53 -35 86 -85 28 -43 50 -66 62
-66 15 0 18 5 13 25 -6 23 -3 25 24 25 37 0 37 6 3 42 -33 35 -12 38 37 5 19
-13 43 -27 54 -30 16 -7 18 -3 12 30 l-7 38 26 -32 c30 -38 50 -42 65 -12 10
19 14 16 49 -38 21 -32 44 -64 53 -71 9 -7 13 -22 10 -37 -6 -35 6 -31 43 13
36 41 109 82 147 82 13 0 32 -6 43 -13 16 -12 13 -15 -34 -20 -93 -11 -148
-58 -214 -182 -32 -59 -30 -59 -77 -35 -55 28 -97 23 -193 -23 -97 -46 -134
-80 -207 -193 -120 -185 -207 -404 -256 -641 -44 -218 -26 -336 77 -482 92
-131 189 -185 329 -185 60 1 86 6 132 28 100 47 203 186 196 263 -3 37 -28 60
-28 26 -1 -37 -18 12 -34 97 -40 206 -38 485 4 690 19 92 55 200 67 200 2 0
15 -7 28 -16 l24 -16 -24 -48 c-57 -113 -98 -350 -99 -585 l-1 -160 48 -88
c52 -98 58 -136 32 -225 -62 -208 -161 -309 -316 -320 -108 -7 -236 34 -319
105 -45 37 -102 127 -130 205 -13 35 -32 87 -42 116 -26 69 -42 68 -36 -3 7
-84 103 -272 177 -346 97 -97 129 -113 235 -117 102 -4 186 12 274 56 126 61
204 209 203 386 0 62 -5 78 -48 165 l-48 95 1 155 c1 206 37 407 100 548 l23
53 50 0 c69 0 151 33 200 80 50 48 118 177 102 193 -19 19 -12 36 41 113 48
69 68 88 68 64 0 -5 7 -10 16 -10 12 0 15 6 10 25 -10 38 13 105 35 105 23 0
49 -27 49 -51 0 -24 -8 -24 -33 -2 -18 17 -19 17 -16 -7 3 -19 11 -26 34 -28
18 -2 33 2 40 12 7 8 27 17 46 18 29 3 34 -1 37 -19 4 -25 -16 -31 -36 -11
-18 18 -25 3 -12 -23 11 -19 10 -25 -6 -36 -10 -7 -26 -13 -35 -13 -21 0 -33
-16 -19 -25 18 -11 12 -22 -61 -112 -150 -187 -285 -335 -353 -387 -83 -64
-152 -133 -143 -142 3 -4 22 7 42 25 20 17 38 31 40 31 2 0 -5 -15 -16 -34
-33 -56 -87 -290 -100 -432 -14 -160 -8 -241 33 -417 29 -127 31 -141 19 -188
-15 -57 -10 -70 18 -45 10 10 21 13 24 8 5 -7 20 -72 41 -174 8 -36 -10 -16
-33 37 -23 54 -46 83 -57 72 -3 -3 11 -45 31 -94 118 -285 138 -414 90 -572
-17 -54 -33 -91 -41 -91 -7 0 -30 9 -51 19 -23 12 -70 22 -118 26 -114 9 -390
-18 -589 -56 l-169 -33 -29 34 c-16 19 -38 52 -49 72 -42 81 -54 43 -15 -46
28 -64 26 -69 -49 -87 -28 -6 -55 -17 -61 -23 -6 -6 -19 -49 -28 -96 -10 -47
-23 -88 -30 -92 -16 -11 -216 -10 -216 1 0 17 28 31 86 43 32 6 61 13 63 14
10 8 -24 34 -44 34 -36 0 -48 24 -43 87 3 37 17 87 40 138 46 104 99 252 138
390 l32 110 5 300 c6 360 -3 485 -56 752 -22 109 -52 261 -66 338 -30 160 -70
327 -121 499 -19 65 -33 124 -31 130 3 6 -5 21 -16 33 -20 22 -20 23 -2 43
l19 21 10 -23 c9 -22 10 -21 15 12 5 31 10 35 40 38 32 3 33 2 27 -22 -20 -84
-20 -79 3 -71 24 7 21 12 77 -140 36 -98 102 -215 139 -245 17 -14 18 -13 12
2 -3 9 -9 33 -13 53 l-7 37 27 -27 c39 -39 108 -65 184 -72 55 -4 82 0 147 21
102 32 128 59 166 167 47 135 36 203 -43 275 -67 61 -140 89 -230 89 -42 0
-75 2 -72 4 2 2 25 10 51 17 58 17 141 10 198 -15z m1170 -12 c0 -17 -6 -25
-22 -27 -19 -3 -23 1 -23 21 0 25 14 38 35 33 6 -2 10 -14 10 -27z m-1795 7
c0 -19 -27 -46 -46 -46 -17 0 -19 31 -2 48 17 17 48 15 48 -2z m-102 -34 c2
-17 -1 -32 -5 -32 -17 0 -33 24 -33 48 0 38 34 24 38 -16z m1955 -6 c7 -17
-11 -36 -35 -36 -21 0 -24 20 -6 38 16 16 35 15 41 -2z m-2009 -12 c20 -19 21
-54 2 -54 -21 0 -38 27 -31 50 8 24 9 24 29 4z m724 0 c71 -29 132 -107 147
-186 16 -84 -16 -96 -140 -53 -77 26 -228 48 -310 43 -60 -3 -65 8 -33 71 56
109 225 172 336 125z m838 -133 c35 -21 78 -74 89 -108 6 -23 6 -23 -103 -23
-110 0 -189 -15 -244 -48 -15 -9 -30 -13 -34 -10 -8 9 31 95 61 134 51 67 166
95 231 55z m-826 -137 c124 -43 130 -51 78 -109 -85 -97 -259 -120 -363 -47
-50 35 -105 106 -105 137 0 30 18 44 71 55 87 18 201 5 319 -36z m919 -30 c2
-2 -4 -24 -13 -49 -21 -54 -86 -123 -141 -150 -54 -27 -145 -27 -174 -1 -22
20 -29 56 -11 56 17 0 11 22 -11 46 -12 13 -19 30 -16 38 7 17 99 53 170 66
47 8 186 4 196 -6z m-562 -100 c-7 -104 6 -102 43 5 13 39 27 71 31 71 3 0 25
-17 48 -37 41 -37 42 -39 30 -73 -14 -42 -79 -154 -111 -192 -21 -24 -28 -26
-70 -21 -46 5 -48 7 -58 47 -6 22 -20 68 -32 101 -31 91 -30 115 11 138 27 17
95 45 110 47 2 0 1 -39 -2 -86z m-270 -739 c23 -44 45 -100 48 -125 10 -67 14
-78 25 -60 15 23 12 109 -5 164 -8 27 -15 57 -15 67 0 31 54 3 118 -61 109
-109 170 -245 179 -402 l6 -86 -48 -51 c-65 -69 -111 -86 -223 -78 -149 10
-213 47 -291 164 -57 86 -75 147 -75 263 -1 98 1 109 28 158 30 54 72 92 128
117 62 27 78 18 125 -70z m-538 -895 c11 -77 -60 -330 -150 -531 -56 -127 -69
-167 -69 -207 0 -48 -1 -51 -25 -48 -33 4 -85 53 -85 81 0 12 -12 32 -26 46
-64 59 -87 165 -64 295 15 87 39 139 65 140 34 2 36 3 25 24 -14 26 -2 48 59
113 90 97 260 152 270 87z m1341 -591 c37 -99 37 -121 4 -203 -20 -48 -33 -66
-50 -70 -13 -4 -24 -11 -24 -17 0 -10 7 -13 53 -23 56 -13 25 -26 -59 -26
l-87 0 7 46 c3 25 20 74 38 110 30 61 31 65 14 77 -18 13 -18 17 3 97 11 46
21 98 21 115 0 75 27 40 80 -106z m-860 -160 c-75 -61 -273 -129 -377 -129
-76 0 -65 18 33 53 106 38 313 96 344 96 l25 1 -25 -21z"/>
<path d="M2837 5205 c-18 -45 64 -242 263 -630 152 -299 218 -451 266 -615 33
-115 49 -137 41 -60 -11 114 -116 395 -217 580 -118 215 -281 554 -310 644
-17 53 -33 96 -35 96 -1 0 -5 -7 -8 -15z"/>
<path d="M2050 4936 c0 -7 19 -40 43 -72 24 -33 60 -88 81 -124 21 -36 60 -95
86 -131 83 -114 178 -315 210 -442 27 -113 62 -197 80 -197 13 0 13 10 -5 60
-21 59 -18 70 8 35 113 -154 228 -277 244 -262 3 3 -23 38 -58 78 -88 103
-150 204 -269 434 -139 270 -163 314 -236 427 -87 135 -184 237 -184 194z"/>
<path d="M3183 3500 c-39 -16 -26 -36 36 -59 32 -12 64 -28 71 -36 16 -19 54
-19 88 -1 15 8 35 17 44 20 29 9 9 37 -46 62 -54 25 -149 32 -193 14z"/>
<path d="M2778 3010 c-35 -60 -103 -249 -119 -329 -7 -38 -15 -58 -19 -50 -10
19 -30 142 -33 204 -2 49 -3 49 -16 24 -11 -23 -11 -50 3 -175 9 -82 16 -222
16 -311 0 -89 4 -164 9 -167 5 -3 14 47 21 112 20 191 85 484 140 626 37 95
36 131 -2 66z"/>
<path d="M2420 2950 c0 -6 9 -29 20 -51 12 -22 28 -71 36 -109 17 -74 29 -87
40 -44 7 28 -18 114 -51 172 -20 36 -45 54 -45 32z"/>
<path d="M2575 1958 c-14 -34 50 -168 116 -242 16 -19 29 -37 29 -42 0 -4 -22
-64 -49 -133 -66 -168 -101 -291 -101 -358 0 -87 22 -60 47 58 34 165 110 384
141 403 5 3 29 -3 53 -13 95 -40 150 -32 67 10 -71 36 -152 94 -192 139 -34
37 -51 70 -93 170 -9 21 -12 23 -18 8z"/>
<path d="M2850 3500 c-12 -23 -2 -30 79 -54 70 -21 73 -20 69 7 -2 15 -18 29
-48 45 -55 27 -86 28 -100 2z"/>
<path d="M3600 3463 c-56 -22 -92 -73 -51 -73 27 0 116 48 116 63 0 13 -41 19
-65 10z"/>
<path d="M3633 3743 c-15 -5 -17 -39 -4 -47 4 -3 38 -3 75 1 61 5 66 8 66 29
0 23 -3 24 -62 23 -35 0 -69 -3 -75 -6z"/>
<path d="M4841 706 c-14 -17 -39 -185 -36 -246 3 -68 4 -70 24 -70 31 0 42 23
35 73 -6 39 16 199 33 243 7 19 -40 19 -56 0z"/>
<path d="M1142 638 c-7 -7 -12 -44 -12 -94 0 -46 -4 -86 -10 -89 -12 -8 -13
-45 -1 -45 5 0 12 -29 16 -65 8 -83 42 -120 74 -82 23 29 24 75 2 103 -30 38
-27 44 22 44 23 0 58 4 76 10 19 5 36 8 38 7 2 -2 4 -41 4 -86 2 -69 5 -83 21
-92 36 -19 44 2 42 110 -2 97 -2 99 22 105 29 8 32 36 5 61 -13 11 -21 33 -23
64 -2 36 -7 47 -22 49 -29 6 -46 -25 -46 -84 0 -50 -1 -53 -32 -62 -18 -6 -52
-13 -76 -16 l-42 -6 2 74 c2 92 -23 131 -60 94z"/>
<path d="M4630 543 c-8 -3 -24 -14 -35 -24 -11 -10 -42 -21 -70 -26 -40 -7
-51 -13 -53 -30 -2 -15 4 -23 18 -28 20 -6 19 -9 -16 -35 l-38 -28 -11 21
c-12 24 -42 34 -57 19 -11 -11 8 -119 24 -139 22 -27 56 -14 88 32 36 52 47
56 56 18 10 -50 13 -53 41 -53 18 0 35 10 50 28 17 20 22 23 23 10 0 -18 45
-58 66 -58 25 0 37 38 19 62 -8 13 -15 35 -15 50 0 52 -59 60 -107 15 -20 -18
-23 -19 -23 -3 0 9 -11 27 -25 40 l-25 23 38 7 c49 7 124 61 120 84 -3 17 -40
26 -68 15z"/>
<path d="M1531 481 c-32 -32 -50 -75 -57 -137 -6 -49 -4 -59 11 -70 30 -22 52
-17 94 21 21 19 41 35 44 35 2 0 8 -16 11 -35 7 -34 29 -55 60 -55 11 0 16 10
16 34 0 19 -4 36 -10 38 -5 2 -13 32 -17 67 -6 48 -13 67 -28 75 -11 6 -31 19
-44 29 -31 22 -56 22 -80 -2z m49 -67 c0 -20 -31 -74 -43 -74 -8 0 -4 19 14
68 10 25 29 30 29 6z"/>
<path d="M3319 474 c-48 -27 -77 -64 -65 -83 12 -18 36 -13 69 15 38 32 45 20
22 -40 -22 -56 -17 -88 17 -104 23 -10 37 -9 106 13 l80 25 32 -31 c27 -27 36
-31 67 -26 74 12 122 98 93 166 -6 16 -30 42 -51 57 -33 23 -45 26 -67 18 -34
-12 -72 -68 -72 -107 0 -22 -4 -28 -16 -23 -8 3 -40 -3 -71 -14 -31 -11 -59
-18 -61 -15 -3 3 5 34 17 70 34 105 -2 134 -100 79z m360 -85 c13 -24 13 -29
-2 -53 -25 -38 -53 -34 -61 9 -13 68 32 99 63 44z"/>
<path d="M2496 474 c-17 -17 -24 -40 -28 -94 -2 -26 -10 -38 -30 -50 -39 -21
-59 -6 -80 60 -10 30 -22 58 -26 62 -12 12 -42 -1 -42 -17 0 -15 -27 -45 -40
-45 -5 0 -10 15 -12 33 -2 27 -8 33 -30 35 -26 3 -28 1 -28 -36 0 -26 -5 -42
-15 -46 -22 -8 -19 -47 5 -53 13 -3 20 -14 20 -28 0 -27 24 -49 45 -41 9 3 15
18 15 39 0 26 6 36 25 45 23 11 26 9 44 -27 11 -21 27 -41 36 -45 26 -10 76
-7 112 6 27 10 38 9 68 -5 64 -30 146 -16 191 34 16 18 16 21 2 35 -13 14 -19
13 -56 -6 -54 -28 -108 -20 -97 13 4 12 10 41 12 64 4 32 1 45 -16 62 -25 25
-54 27 -75 5z"/>
<path d="M3102 480 c-36 -15 -65 -92 -57 -147 8 -53 42 -93 80 -93 56 0 109
48 115 105 5 48 -2 70 -39 106 -39 40 -58 45 -99 29z m62 -76 c21 -20 20 -53
-1 -76 -25 -27 -41 -22 -48 16 -13 64 14 96 49 60z"/>
<path d="M4179 461 c-34 -35 -36 -59 -9 -94 l20 -25 -30 -11 c-25 -8 -32 -7
-36 4 -9 23 -32 25 -58 4 -44 -35 -67 -22 -90 46 -11 33 -24 63 -30 67 -15 10
-46 -10 -46 -31 0 -11 -7 -22 -16 -25 -23 -9 -24 -8 -24 13 0 35 -12 51 -36
51 -20 0 -24 -5 -24 -32 0 -18 -9 -41 -21 -54 -21 -22 -21 -22 -1 -42 10 -10
22 -31 25 -44 7 -28 28 -41 53 -31 12 4 14 14 10 38 -6 30 -4 34 23 43 26 9
31 8 36 -8 3 -10 15 -30 26 -44 17 -21 29 -26 65 -26 25 0 54 5 64 10 13 7 21
7 25 0 15 -24 107 4 159 49 18 15 19 15 12 -11 -8 -35 17 -63 45 -48 14 8 19
21 19 55 0 24 -4 47 -10 50 -5 3 -10 25 -10 49 0 53 -22 76 -74 76 -28 0 -45
-7 -67 -29z m81 -41 c0 -13 -7 -20 -20 -20 -19 0 -27 20 -13 33 13 14 33 6 33
-13z"/>
<path d="M1755 455 c-20 -19 -25 -34 -25 -75 0 -44 5 -56 29 -81 50 -49 128
-36 185 32 29 34 29 47 4 63 -12 7 -24 3 -51 -21 -44 -38 -73 -49 -93 -32 -19
16 -15 74 6 75 35 2 40 5 40 22 0 46 -57 56 -95 17z"/>
<path d="M2909 455 c-35 -19 -62 -77 -54 -115 7 -30 17 -36 74 -42 24 -3 25
-6 22 -68 -3 -78 -18 -134 -42 -156 -16 -14 -20 -14 -57 5 -45 23 -56 36 -57
66 0 15 -8 21 -32 23 -31 3 -33 1 -33 -28 0 -41 23 -73 78 -110 119 -79 193
-4 206 211 6 86 4 109 -7 121 -9 8 -13 25 -10 40 3 18 -2 33 -16 47 -24 24
-36 25 -72 6z m51 -76 c0 -5 -10 -9 -21 -9 -18 0 -19 2 -9 15 12 15 30 12 30
-6z"/>
<path d="M4807 283 c-15 -14 -6 -53 14 -64 17 -8 24 -8 36 3 21 22 7 68 -21
68 -13 0 -26 -3 -29 -7z"/>
</g>
</svg>
